<svg width="20" height="20" viewBox="0 0 20 20" fill="none" xmlns="http://www.w3.org/2000/svg">
<g clip-path="url(#clip0_180_535)">
<path d="M9.99991 11.25C7.11841 11.25 4.69234 13.2 3.96939 15.8524C3.72733 16.7405 4.49614 17.5 5.41661 17.5H14.5832C15.5037 17.5 16.2726 16.7405 16.0305 15.8524C15.3076 13.2 12.8815 11.25 9.99991 11.25Z" stroke="#C7F803" stroke-width="0.8" stroke-linecap="round"/>
<path d="M12.9163 5.83332C12.9163 7.44416 11.6105 8.74999 9.99964 8.74999C8.38881 8.74999 7.08301 7.44416 7.08301 5.83332C7.08301 4.22249 8.38881 2.91666 9.99964 2.91666C11.6105 2.91666 12.9163 4.22249 12.9163 5.83332Z" stroke="#C7F803" stroke-width="0.8" stroke-linecap="round"/>
<path d="M18.872 18C18.4827 18 18.288 17.8053 18.288 17.416V17.048C18.288 16.6693 18.4827 16.48 18.872 16.48H19.224C19.5973 16.48 19.784 16.6693 19.784 17.048V17.416C19.784 17.8053 19.5973 18 19.224 18H18.872Z" fill="#C7F803"/>
</g>
<defs>
<clipPath id="clip0_180_535">
<rect width="20" height="20" fill="white"/>
</clipPath>
</defs>
</svg>
